<svg xmlns="http://www.w3.org/2000/svg" width="110" height="110" version="1.0" viewBox="0 0 110 110"><circle cx="55" cy="55" r="55" fill="#E04F5F"/><path fill="#FACB1B" d="M78.5 71c-3.4-2.8-7.5-7.55-7.5-28 0 0 0-1.8-.93-4-1.46-3.49-5.26-8-15.07-8s-13.61 4.51-15.07 8C39 41.2 39 43 39 43c0 20.45-4.1 25.2-7.5 28-2.43 2-4.5 3.01-4.5 8h56c0-4.99-2.07-6-4.5-8z"/><path fill="#FBEC9A" d="M55 79H27c0-4.99 2.07-6 4.5-8 3.4-2.8 7.5-7.55 7.5-28 0 0 0-1.8.93-4 1.46-3.49 5.26-8 15.07-8v48z"/><circle cx="55" cy="27" r="4" fill="#FBE158"/><path fill="#FACB1B" d="M39.015 42.685c.071-1 .364-2.381.915-3.685H55v4H39s0-.112.015-.315z"/><path fill="#F3B607" d="M70.985 42.685c-.071-1-.364-2.381-.915-3.685H55v4h16s0-.112-.015-.315zM78.5 71H55v8h28c0-4.99-2.07-6-4.5-8z"/><path fill="#FACB1B" d="M31.5 71H55v8H27c0-4.99 2.07-6 4.5-8z"/><path fill="#FBE158" d="M55 87a8 8 0 0 0 8-8H47a8 8 0 0 0 8 8z"/></svg>