<svg xmlns="http://www.w3.org/2000/svg" viewBox="0 0 64 64"><g data-name="Logout"><path fill="#546e7a" d="M46.685,51.273H17.315a8.51,8.51,0,0,1-8.5-8.5V21.227a8.51,8.51,0,0,1,8.5-8.5H32.65a1.5,1.5,0,0,1,0,3H17.315a5.506,5.506,0,0,0-5.5,5.5V42.773a5.506,5.506,0,0,0,5.5,5.5h29.37a5.506,5.506,0,0,0,5.5-5.5V31.16a1.5,1.5,0,1,1,3,0V42.773A8.51,8.51,0,0,1,46.685,51.273Z"/><path fill="#ef5350" d="M29.877 40.505H21.22a1.5 1.5 0 0 1 0-3h8.657A14.893 14.893 0 0 0 44.754 22.628v-8.4a1.5 1.5 0 1 1 3 0v8.4A17.9 17.9 0 0 1 29.877 40.505zM53.685 23.157a1.5 1.5 0 0 1-1.061-.439l-2.641-2.641A1.5 1.5 0 1 1 52.1 17.956L54.745 20.6a1.5 1.5 0 0 1-1.06 2.56z"/><path fill="#ef5350" d="M38.824,23.157a1.5,1.5,0,0,1-1.06-2.56l7.43-7.43a1.5,1.5,0,1,1,2.121,2.121l-7.43,7.43A1.5,1.5,0,0,1,38.824,23.157Z"/></g></svg>