<svg xmlns="http://www.w3.org/2000/svg" width="48" height="48" viewBox="0 0 48 48"><g transform="translate(0 -1004.362)"><circle cx="24" cy="1028.362" r="24" fill="#239fdb" fill-rule="evenodd"/><path fill="#fff" fill-rule="evenodd" d="M 11.501953,2 C 8.4800521,2 6.0214529,4.4692 6.0214844,7.5 c 2.89e-5,3.0308 2.4586102,5.5 5.4804686,5.5 3.021858,0 5.48044,-2.4692 5.480469,-5.5 C 16.982453,4.4692 14.523853,2 11.501953,2 Z m 0,1 c 2.479275,0 4.480494,2.0075 4.480469,4.5 C 15.982398,9.9925 13.981193,12 11.501953,12 9.0227131,12 7.0215081,9.9925 7.0214844,7.5 7.0214585,5.0075 9.0226771,3 11.501953,3 Z M 24.625,7.7304688 a 0.50005,0.50005 0 0 0 -0.5,0.5 l 0,0.5117187 c -0.144182,0.05 -0.28452,0.105775 -0.421875,0.171875 l -0.361328,-0.359375 a 0.50005,0.50005 0 0 0 -0.707031,0 l -1.060547,1.0605469 a 0.50005,0.50005 0 0 0 0,0.7070316 l 0.361328,0.361328 c -0.06674,0.1376 -0.125765,0.277375 -0.175781,0.421875 l -0.509766,0 a 0.50005,0.50005 0 0 0 -0.5,0.5 l 0,1.5 a 0.50005,0.50005 0 0 0 0.5,0.5 l 0.511719,0 c 0.0495,0.1442 0.105749,0.284475 0.171875,0.421875 l -0.359375,0.361328 a 0.50005,0.50005 0 0 0 0,0.707031 l 1.060547,1.060547 a 0.50005,0.50005 0 0 0 0.707031,0 l 0.361328,-0.361328 c 0.137413,0.067 0.277569,0.123928 0.421875,0.173828 l 0,0.511719 a 0.50005,0.50005 0 0 0 0.5,0.5 l 1.5,0 a 0.50005,0.50005 0 0 0 0.5,-0.5 l 0,-0.511719 c 0.144418,-0.05 0.284307,-0.107528 0.421875,-0.173828 l 0.361328,0.361328 a 0.50005,0.50005 0 0 0 0.707031,0 l 1.060547,-1.060547 a 0.50005,0.50005 0 0 0 0,-0.707031 l -0.361328,-0.361328 c 0.06674,-0.1377 0.125768,-0.277375 0.175781,-0.421875 l 0.509766,0 a 0.50005,0.50005 0 0 0 0.5,-0.5 l 0,-1.5 a 0.50005,0.50005 0 0 0 -0.5,-0.5 l -0.511719,0 c -0.04958,-0.1444 -0.107569,-0.284275 -0.173828,-0.421875 l 0.361328,-0.361328 a 0.50005,0.50005 0 0 0 0,-0.7070316 L 28.115234,8.5546875 a 0.50005,0.50005 0 0 0 -0.707031,0 L 27.046875,8.9160156 C 26.909251,8.8490156 26.769543,8.7902344 26.625,8.7402344 l 0,-0.5097656 a 0.50005,0.50005 0 0 0 -0.5,-0.5 l -1.5,0 z m 0.5,1 0.5,0 0,0.3378906 a 0.50005,0.50005 0 0 0 0.388672,0.4882812 c 0.315163,0.072 0.616856,0.1952875 0.890625,0.3671875 a 0.50005,0.50005 0 0 0 0.619141,-0.070312 l 0.238281,-0.2382812 0.353515,0.3535156 -0.238281,0.2363285 a 0.50005,0.50005 0 0 0 -0.07031,0.619141 c 0.17111,0.2744 0.296269,0.575125 0.367187,0.890625 a 0.50005,0.50005 0 0 0 0.486328,0.390625 l 0.339844,0 0,0.5 -0.337891,0 a 0.50005,0.50005 0 0 0 -0.488281,0.388672 c -0.07182,0.3151 -0.195329,0.616825 -0.367187,0.890625 a 0.50005,0.50005 0 0 0 0.07031,0.61914 l 0.238281,0.238282 -0.353515,0.353515 -0.236328,-0.238281 a 0.50005,0.50005 0 0 0 -0.619141,-0.07031 c -0.274312,0.1711 -0.575199,0.294335 -0.890625,0.365235 A 0.50005,0.50005 0 0 0 25.625,15.640625 l 0,0.339844 -0.5,0 0,-0.337891 a 0.50005,0.50005 0 0 0 -0.388672,-0.488281 c -0.315158,-0.072 -0.61685,-0.195288 -0.890625,-0.367188 a 0.50005,0.50005 0 0 0 -0.619141,0.06836 l -0.238281,0.238281 -0.353515,-0.353516 0.238281,-0.238281 a 0.50005,0.50005 0 0 0 0.07031,-0.617187 c -0.17111,-0.2743 -0.296269,-0.575125 -0.367187,-0.890625 a 0.50005,0.50005 0 0 0 -0.486328,-0.390625 l -0.339844,0 0,-0.5 0.337891,0 a 0.50005,0.50005 0 0 0 0.488281,-0.388672 c 0.07183,-0.3151 0.195335,-0.616825 0.367187,-0.890625 a 0.50005,0.50005 0 0 0 -0.07031,-0.619141 l -0.238281,-0.2382811 0.353515,-0.3535157 0.236328,0.2363282 a 0.50005,0.50005 0 0 0 0.619141,0.072266 c 0.274309,-0.1711 0.575202,-0.2962875 0.890625,-0.3671875 A 0.50005,0.50005 0 0 0 25.125,9.0683594 l 0,-0.3378906 z m 0.25,1.9785152 c -0.90292,0 -1.646484,0.743485 -1.646484,1.646485 0,0.9029 0.7433,1.646484 1.646484,1.646484 0.903179,0 1.646484,-0.743584 1.646484,-1.646484 0,-0.903 -0.74357,-1.646485 -1.646484,-1.646485 z m 0,1 c 0.356726,0 0.646484,0.289685 0.646484,0.646485 0,0.3567 -0.290023,0.646484 -0.646484,0.646484 -0.356476,0 -0.646484,-0.289784 -0.646484,-0.646484 0,-0.3568 0.289744,-0.646485 0.646484,-0.646485 z M 8.5214844,14 c -4.1476287,0 -7.5,3.368197 -7.5,7.529297 l 0,4.515625 c 2.76e-5,0.2762 0.223869,0.5 0.5,0.5 l 3.8535156,0 a 0.50004994,0.50004994 0 0 0 0.2929688,0 l 8.4531252,0 c 0.05962,-0.1809 0.148393,-0.35296 0.273437,-0.50586 -0.388526,-0.039 -0.740903,-0.22234 -0.992187,-0.49414 l -7.3808596,0 0,-4.021484 A 0.50004994,0.50004994 0 0 0 5.5136719,21.015625 0.50004994,0.50004994 0 0 0 5.0214844,21.523438 l 0,4.021484 -3,0 0,-4.015625 c 0,-3.6266 2.8912665,-6.529297 6.5,-6.529297 l 5.9999996,0 C 16.026297,15 17.402313,15.509928 18.5,16.361328 18.750204,16.139428 19.07051,16 19.429688,16 l 0.173828,0 c -1.336161,-1.2385 -3.116693,-2 -5.082032,-2 l -5.9999996,0 z m 10.9082036,3.001953 a 0.50004997,0.50004997 0 0 0 -0.5,0.5 l 0,0.892578 c -0.31027,0.096 -0.608386,0.219241 -0.896485,0.369141 l -0.628906,-0.628906 a 0.50004997,0.50004997 0 0 0 -0.707031,0 l -1.542969,1.542968 a 0.50004997,0.50004997 0 0 0 0,0.707032 l 0.628906,0.628906 c -0.150663,0.2878 -0.274401,0.586384 -0.371094,0.896484 l -0.890625,0 a 0.50004997,0.50004997 0 0 0 -0.5,0.5 l 0,2.181641 a 0.50004997,0.50004997 0 0 0 0.5,0.5 l 0.892578,0 c 0.09585,0.3103 0.217324,0.610237 0.367188,0.898437 l -0.626953,0.628907 a 0.50004997,0.50004997 0 0 0 0,0.707031 l 1.542969,1.542969 a 0.50004997,0.50004997 0 0 0 0.707031,0 l 0.628906,-0.63086 c 0.287913,0.1508 0.586224,0.274394 0.896485,0.371094 l 0,0.892578 a 0.50004997,0.50004997 0 0 0 0.5,0.5 l 2.18164,0 a 0.50004997,0.50004997 0 0 0 0.5,-0.5 l 0,-0.894531 c 0.310309,-0.096 0.610301,-0.217388 0.898438,-0.367188 l 0.628906,0.628907 a 0.50004997,0.50004997 0 0 0 0.707031,0 l 1.542969,-1.542969 a 0.50004997,0.50004997 0 0 0 0,-0.707031 l -0.63086,-0.63086 c 0.15076,-0.2879 0.274355,-0.586184 0.371094,-0.896484 l 0.892578,0 a 0.50004997,0.50004997 0 0 0 0.5,-0.5 l 0,-2.181641 a 0.50004997,0.50004997 0 0 0 -0.5,-0.5 l -0.894531,0 c -0.0958,-0.31 -0.21748,-0.608584 -0.367187,-0.896484 l 0.628906,-0.628906 a 0.50004997,0.50004997 0 0 0 0,-0.707032 l -1.542969,-1.542968 a 0.50004997,0.50004997 0 0 0 -0.707031,0 l -0.63086,0.630859 c -0.288008,-0.1509 -0.586107,-0.276247 -0.896484,-0.373047 l 0,-0.890625 a 0.50004997,0.50004997 0 0 0 -0.5,-0.5 l -2.18164,0 z m 0.5,1 1.18164,0 0,0.71875 A 0.50004997,0.50004997 0 0 0 21.5,19.207031 c 0.483329,0.1101 0.945382,0.300953 1.365234,0.564453 a 0.50004997,0.50004997 0 0 0 0.619141,-0.06836 l 0.507813,-0.507813 0.835937,0.835938 -0.505859,0.503906 a 0.50004997,0.50004997 0 0 0 -0.07031,0.619141 c 0.262398,0.4207 0.451781,0.881434 0.560547,1.365234 a 0.50004997,0.50004997 0 0 0 0.488281,0.390625 l 0.720703,0 0,1.181641 -0.71875,0 a 0.50004997,0.50004997 0 0 0 -0.488281,0.388672 c -0.110145,0.4833 -0.3009,0.945434 -0.564453,1.365234 a 0.50004997,0.50004997 0 0 0 0.07031,0.619141 l 0.507813,0.507812 -0.835937,0.835938 -0.50586,-0.50586 a 0.50004997,0.50004997 0 0 0 -0.617187,-0.07031 c -0.420679,0.2623 -0.883456,0.451747 -1.367188,0.560547 a 0.50004997,0.50004997 0 0 0 -0.390625,0.488281 l 0,0.720703 -1.18164,0 0,-0.71875 a 0.50004997,0.50004997 0 0 0 -0.388672,-0.488281 c -0.483324,-0.1101 -0.945376,-0.300953 -1.365235,-0.564453 a 0.50004997,0.50004997 0 0 0 -0.61914,0.07031 l -0.50586,0.507813 -0.835937,-0.835938 0.503906,-0.505859 a 0.50004997,0.50004997 0 0 0 0.07227,-0.617188 c -0.262408,-0.4206 -0.451791,-0.883487 -0.560547,-1.367187 a 0.50004997,0.50004997 0 0 0 -0.488281,-0.390625 l -0.720704,0 0,-1.181641 0.71875,0 a 0.50004997,0.50004997 0 0 0 0.486328,-0.388672 c 0.110155,-0.4833 0.30091,-0.945434 0.564454,-1.365234 a 0.50004997,0.50004997 0 0 0 -0.06836,-0.619141 l -0.507812,-0.505859 0.835937,-0.835938 0.503907,0.503907 a 0.50004997,0.50004997 0 0 0 0.61914,0.07227 c 0.420679,-0.2624 0.881503,-0.451847 1.365234,-0.560546 a 0.50004997,0.50004997 0 0 0 0.390626,-0.488282 l 0,-0.720703 z m 0.591796,3 c -1.372104,0 -2.5,1.125847 -2.5,2.498047 0,1.3721 1.127532,2.501953 2.5,2.501953 1.372468,0 2.498047,-1.129853 2.498047,-2.501953 0,-1.3722 -1.125943,-2.498047 -2.498047,-2.498047 z m 0,1 c 0.825996,0 1.498047,0.671947 1.498047,1.498047 0,0.8259 -0.672415,1.501953 -1.498047,1.501953 -0.825632,0 -1.5,-0.676053 -1.5,-1.501953 0,-0.8261 0.674004,-1.498047 1.5,-1.498047 z" color="#000" font-family="sans-serif" font-weight="400" overflow="visible" transform="translate(8.979 1012.361)" style="line-height:normal;text-indent:0;text-align:start;text-decoration-line:none;text-decoration-style:solid;text-decoration-color:#000;text-transform:none;block-progression:tb;isolation:auto;mix-blend-mode:normal"/></g></svg>